<?xml version="1.0" encoding="utf-8"?>
<!-- Generator: Adobe Illustrator 16.0.0, SVG Export Plug-In . SVG Version: 6.00 Build 0)  -->
<!DOCTYPE svg PUBLIC "-//W3C//DTD SVG 1.1//EN" "http://www.w3.org/Graphics/SVG/1.1/DTD/svg11.dtd">
<svg version="1.1" id="Capa_1" xmlns="http://www.w3.org/2000/svg" xmlns:xlink="http://www.w3.org/1999/xlink" x="0px" y="0px"
	 width="792px" height="116.304px" viewBox="0 0 792 116.304" enable-background="new 0 0 792 116.304" xml:space="preserve">
<path fill="#010103" d="M190.325,31.89l10.974-0.015L198.3,53.859l19.985-0.03l2.973-21.984l11.015-0.015l-7.952,58.268
	l-10.936,0.015l3.576-26.459l-20,0.03l-3.613,26.46l-10.895,0.015L190.325,31.89z"/>
<polygon fill="#010103" points="133.598,42.313 137.068,31.973 103.313,32.021 95.44,90.286 106.458,90.27 109.963,64.646 
	125.646,64.623 127.626,56.105 110.917,56.136 112.52,45.799 112.52,45.799 113.014,42.343 "/>
<path fill="#010103" d="M161.939,81.435c-5.702,0.015-10.378-1.729-14.028-5.219c-3.646-3.489-5.474-7.87-5.485-13.147
	c-0.003-3.879,1.026-7.533,3.093-10.962c2.07-3.437,4.96-6.192,8.682-8.285c3.721-2.085,7.615-3.137,11.681-3.141
	c2.901-0.003,5.597,0.524,8.08,1.587c1.022,0.438,1.969,0.958,2.86,1.546l7.72-7.409c-5.541-3.976-11.861-5.953-18.956-5.941
	c-6.204,0.007-11.932,1.501-17.181,4.481c-5.249,2.976-9.408,7.046-12.475,12.216c-3.07,5.167-4.601,10.562-4.594,16.185
	c0.011,5.255,1.318,10.129,3.924,14.629c2.609,4.493,6.061,7.9,10.352,10.222c4.298,2.313,9.502,3.467,15.631,3.459
	c6.451-0.008,12.329-1.303,17.63-3.871l-6.346-8.483C169.322,80.716,165.799,81.435,161.939,81.435z"/>
<g>
	<polygon fill="#58B029" points="58.844,95.437 83.602,92.629 85.609,92.113 87.623,92.629 92.202,93.13 97.237,56.911 	"/>
	<path fill="#79BE1F" d="M98.81,31.583c0,0-2.89,2.247-4.583-0.955c-1.704-3.205-6.844-12.201-6.844-12.201
		s-5.129,9.011-6.81,12.224c-1.692,3.197-4.602,0.966-4.602,0.966l-4.474-2.403c0,0,2.01,11.104,3.415,18.663
		c1.4,7.559-3.501,2.786-3.501,2.786l-8.648-9.232c-0.176,7.072-4.208,6.271-4.208,6.271l-11-2c0,0,2.557,7.945,3.374,10.502
		c0.816,2.568-0.895,3.676-0.895,3.676l-3.972,1.906c0,0,19.382,15.33,20.281,16.018c0.91,0.629,0.46,2.313,0.46,2.313l-1.67,5.249
		l0.61-0.06l32.014-32.113l3.156-22.751L98.81,31.583z"/>
</g>
<g>
	<g>
		<path fill="#58B029" d="M302.095,39.913l-7.857,7.286c-1.694-1.952-3.766-3.456-6.216-4.51c-2.45-1.054-5.108-1.582-7.974-1.582
			c-4.014,0-7.857,1.028-11.532,3.085c-3.675,2.057-6.535,4.778-8.581,8.162c-2.046,3.385-3.069,6.99-3.069,10.818
			c0,5.206,1.798,9.534,5.395,12.984c3.597,3.449,8.209,5.175,13.838,5.175c6.02,0,11.232-1.746,15.636-5.238l6.372,8.404
			c-6.542,4.612-14.112,6.919-22.711,6.919c-6.046,0-11.187-1.147-15.421-3.439c-4.235-2.293-7.636-5.662-10.203-10.105
			c-2.567-4.442-3.851-9.258-3.851-14.443c0-5.551,1.518-10.874,4.554-15.969c3.036-5.095,7.147-9.108,12.333-12.04
			c5.186-2.932,10.841-4.397,16.965-4.397C288.374,31.021,295.814,33.985,302.095,39.913z"/>
		<path fill="#58B029" d="M341.889,31.021c7.896,0,14.411,2.541,19.545,7.623c5.134,5.082,7.701,11.532,7.701,19.35
			c0,5.994-1.519,11.643-4.554,16.945c-3.036,5.304-7.075,9.376-12.118,12.216c-5.042,2.84-10.834,4.261-17.375,4.261
			c-8.184,0-14.718-2.424-19.604-7.271c-4.887-4.848-7.33-11.232-7.33-19.154c0-8.991,2.918-16.717,8.756-23.181
			C323.425,34.617,331.751,31.021,341.889,31.021z M341.498,41.224c-4.118,0-7.877,0.997-11.278,2.99s-6.144,4.861-8.229,8.6
			c-2.085,3.74-3.127,7.603-3.127,11.59c0,4.716,1.446,8.717,4.339,12s7.049,4.926,12.47,4.926c6.28,0,11.616-2.215,16.007-6.646
			c4.391-4.431,6.587-9.812,6.587-16.145c0-5.238-1.544-9.434-4.632-12.587C350.548,42.801,346.502,41.224,341.498,41.224z"/>
		<path fill="#58B029" d="M382.733,32.467h9.422l20.737,39.09l5.341-39.09h10.534l-7.818,57.502h-9.22l-21.01-39.521l-5.4,39.521
			h-10.363L382.733,32.467z"/>
		<path fill="#58B029" d="M434.495,32.467h35.104l-1.251,10.242h-11.985l-6.458,47.26h-10.718l6.458-47.26h-12.479L434.495,32.467z"
			/>
		<path fill="#58B029" d="M476.205,32.467h9.986c6.166,0,10.504,0.534,13.017,1.602c3.135,1.329,5.499,3.171,7.092,5.529
			c1.593,2.358,2.39,5.151,2.39,8.381c0,3.986-1.184,7.405-3.55,10.257c-2.366,2.853-5.942,4.838-10.728,5.958l12.519,25.775h-11.18
			l-12.274-25.096h-0.884l-3.451,25.096h-10.794L476.205,32.467z M483.888,55.453c5.842-0.026,9.645-0.632,11.407-1.818
			c1.763-1.186,2.645-2.964,2.645-5.336c0-1.354-0.354-2.488-1.061-3.401c-0.707-0.912-1.729-1.55-3.065-1.916
			c-1.337-0.364-4.05-0.547-8.137-0.547L483.888,55.453z"/>
		<path fill="#58B029" d="M548.405,31.021c7.896,0,14.411,2.541,19.546,7.623c5.134,5.082,7.701,11.532,7.701,19.35
			c0,5.994-1.519,11.643-4.555,16.945c-3.036,5.304-7.075,9.376-12.118,12.216s-10.835,4.261-17.376,4.261
			c-8.183,0-14.718-2.424-19.604-7.271c-4.887-4.848-7.33-11.232-7.33-19.154c0-8.991,2.919-16.717,8.757-23.181
			C529.941,34.617,538.268,31.021,548.405,31.021z M548.015,41.224c-4.118,0-7.877,0.997-11.277,2.99
			c-3.401,1.994-6.145,4.861-8.229,8.6c-2.086,3.74-3.128,7.603-3.128,11.59c0,4.716,1.446,8.717,4.34,12
			c2.893,3.283,7.049,4.926,12.47,4.926c6.28,0,11.616-2.215,16.008-6.646c4.391-4.431,6.586-9.812,6.586-16.145
			c0-5.238-1.544-9.434-4.632-12.587C557.064,42.801,553.019,41.224,548.015,41.224z"/>
		<path fill="#58B029" d="M589.373,32.467h10.861l-6.585,47.612h17.849l-1.251,9.89h-28.731L589.373,32.467z"/>
		<path fill="#58B029" d="M624.594,32.467h10.861L628.87,80.08h17.849l-1.251,9.89h-28.731L624.594,32.467z"/>
		<path fill="#58B029" d="M659.032,32.467h30.921l-1.324,10.203h-20.064l-1.649,11.884h20.171l-1.314,10.125h-20.261l-2.115,15.245
			h20.396l-1.305,10.046h-31.312L659.032,32.467z"/>
		<path fill="#58B029" d="M701.954,32.467h9.986c6.166,0,10.504,0.534,13.017,1.602c3.135,1.329,5.499,3.171,7.092,5.529
			c1.593,2.358,2.39,5.151,2.39,8.381c0,3.986-1.184,7.405-3.55,10.257c-2.366,2.853-5.942,4.838-10.728,5.958l12.519,25.775H721.5
			l-12.274-25.096h-0.884l-3.451,25.096h-10.794L701.954,32.467z M709.637,55.453c5.842-0.026,9.645-0.632,11.407-1.818
			c1.763-1.186,2.645-2.964,2.645-5.336c0-1.354-0.354-2.488-1.061-3.401c-0.707-0.912-1.729-1.55-3.065-1.916
			c-1.337-0.364-4.05-0.547-8.137-0.547L709.637,55.453z"/>
	</g>
</g>
</svg>
